<?xml version="1.0" encoding="iso-8859-1"?>
<!-- Uploaded to: SVG Repo, www.svgrepo.com, Generator: SVG Repo Mixer Tools -->
<svg version="1.1" id="Layer_1" xmlns="http://www.w3.org/2000/svg" xmlns:xlink="http://www.w3.org/1999/xlink" 
	 viewBox="0 0 490.997 490.997" xml:space="preserve">
<g>
	<g id="XMLID_529_">
		<rect x="0.001" style="fill:#F9B233;" width="490.996" height="360.576"/>
	</g>
	<g id="XMLID_294_">
		<rect x="30.688" y="30.687" style="fill:#BE1622;" width="69.046" height="153.436"/>
	</g>
	<g id="XMLID_322_">
		<rect x="184.124" y="30.687" style="fill:#BE1622;" width="69.046" height="153.436"/>
	</g>
	<g id="XMLID_323_">
		<rect x="322.216" y="38.359" style="fill:#BE1622;" width="69.046" height="153.436"/>
	</g>
	<g id="XMLID_324_">
		<rect x="452.638" y="115.077" style="fill:#BE1622;" width="38.359" height="76.718"/>
	</g>
	<polygon style="fill:#E94E1B;" points="414.279,176.452 414.279,23.015 352.904,23.015 352.904,176.452 291.529,176.452 
		291.529,107.406 230.156,107.406 230.156,176.452 222.484,176.452 222.484,84.39 161.109,84.39 161.109,176.452 138.094,176.452 
		138.094,115.077 76.719,115.077 76.719,176.452 61.376,176.452 61.376,53.703 0.001,53.703 0.001,176.452 0.001,184.124 
		0.001,360.576 490.997,360.576 490.997,176.452 	"/>
	<g id="XMLID_531_">
		<polygon style="fill:#CBBBA0;" points="490.997,277.144 421.951,314.545 414.279,360.576 337.56,360.576 283.857,276.186 
			199.467,283.857 161.109,352.904 84.391,360.576 69.047,322.216 0.001,277.144 0.001,237.826 490.997,237.826 		"/>
	</g>
	<g id="XMLID_530_">
		<rect x="0.001" y="221.524" style="fill:#7B6A58;" width="490.996" height="24.933"/>
	</g>
	<g id="XMLID_519_">
		<rect x="0.001" y="359.617" style="fill:#00A19A;" width="490.996" height="131.38"/>
	</g>
	<g id="XMLID_491_">
		<rect x="0.001" y="214.811" style="fill:#1D1D1B;" width="490.996" height="15.344"/>
	</g>
	<g id="XMLID_507_">
		<rect x="460.31" y="191.795" style="fill:#1D1D1B;" width="30.687" height="15.344"/>
	</g>
	<g id="XMLID_508_">
		<rect x="414.279" y="191.795" style="fill:#1D1D1B;" width="30.687" height="15.344"/>
	</g>
	<g id="XMLID_509_">
		<rect x="368.247" y="191.795" style="fill:#1D1D1B;" width="30.687" height="15.344"/>
	</g>
	<g id="XMLID_510_">
		<rect x="322.216" y="191.795" style="fill:#1D1D1B;" width="30.687" height="15.344"/>
	</g>
	<g id="XMLID_511_">
		<rect x="276.185" y="191.795" style="fill:#1D1D1B;" width="30.687" height="15.344"/>
	</g>
	<g id="XMLID_512_">
		<rect x="230.156" y="191.795" style="fill:#1D1D1B;" width="30.687" height="15.344"/>
	</g>
	<g id="XMLID_513_">
		<rect x="184.124" y="191.795" style="fill:#1D1D1B;" width="30.687" height="15.344"/>
	</g>
	<g id="XMLID_514_">
		<rect x="138.094" y="191.795" style="fill:#1D1D1B;" width="30.687" height="15.344"/>
	</g>
	<g id="XMLID_515_">
		<rect x="92.063" y="191.795" style="fill:#1D1D1B;" width="30.687" height="15.344"/>
	</g>
	<g id="XMLID_516_">
		<rect x="46.032" y="191.795" style="fill:#1D1D1B;" width="30.687" height="15.344"/>
	</g>
	<g id="XMLID_517_">
		<rect x="0.001" y="191.795" style="fill:#1D1D1B;" width="30.687" height="15.344"/>
	</g>
	<path style="fill:#1D1D1B;" d="M490.997,291.529v-15.344c-43.945,0-80.135,33.769-84.025,76.718h-69.733
		c-3.912-47.187-43.56-84.39-91.74-84.39c-48.179,0-87.828,37.203-91.74,84.39H84.027c-3.891-42.948-40.081-76.717-84.026-76.717
		v15.344c35.478,0,64.78,26.901,68.61,61.375H0.001v15.344h490.996v-15.344h-68.61C426.216,318.43,455.518,291.529,490.997,291.529z
		 M245.499,283.857c39.713,0,72.472,30.332,76.334,69.046H169.165C173.027,314.19,205.786,283.857,245.499,283.857z"/>
	<g id="XMLID_521_">
		<rect x="92.063" y="322.216" style="fill:#1D1D1B;" width="53.703" height="15.344"/>
	</g>
	<g id="XMLID_522_">
		<rect x="345.232" y="322.216" style="fill:#1D1D1B;" width="53.703" height="15.344"/>
	</g>
	<g id="XMLID_523_">
		<rect x="46.032" y="391.263" style="fill:#FFFFFF;" width="23.015" height="15.344"/>
	</g>
	<g id="XMLID_524_">
		<rect x="76.719" y="414.278" style="fill:#FFFFFF;" width="84.39" height="15.344"/>
	</g>
	<g id="XMLID_525_">
		<rect x="291.529" y="452.637" style="fill:#FFFFFF;" width="99.734" height="15.344"/>
	</g>
	<g id="XMLID_526_">
		<rect x="391.263" y="406.606" style="fill:#FFFFFF;" width="23.015" height="15.344"/>
	</g>
	<g id="XMLID_527_">
		<rect x="414.279" y="437.294" style="fill:#FFFFFF;" width="46.031" height="15.344"/>
	</g>
	<g id="XMLID_528_">
		<rect x="168.781" y="444.966" style="fill:#FFFFFF;" width="23.015" height="15.344"/>
	</g>
</g>
</svg>